# xmcd
#
# Track frame offsets:
#	150
#	15794
#	31730
#	48054
#	78131
#	107056
#	122856
#	137377
#	148093
#	165324
#	183481
#	199848
#	218685
#	234462
#	249686
#	273184
#	284122
#	310006
#	333569
#
# Disc length: 4661 seconds
#
# Revision: 1
# Processed by: cddbd v1.5.2PL0 Copyright (c) Steve Scherf et al.
# Submitted via: audiograbber 1.83.01
#
DISCID=00123313
DTITLE=Lismore - Collection 2004 CD 2
DYEAR=2004
DGENRE=Blues
TTITLE0=Wild Women Blues - Let The Good Times Roll
TTITLE1=Ella Fitzgerald - Sweet Georgia Brown
TTITLE2=Sista Monica - Somebody Gonna Give Up Something Tonight
TTITLE3=Fessors Big City Band - Blue Fiddle
TTITLE4=Fessors Big City Band - Duet 6:14
TTITLE5=Stacey Kent - All Do Is Dream
TTITLE6=Roomful OF Blues - I know Your Wig Is Gone
TTITLE7=Roomful OF Blues - I'm Tryin
TTITLE8=Wrobel, Hopkin, Barrett - Hop Skip &Jump
TTITLE9=Wrobel, Hopkin, Barrett - 9:20 Special
TTITLE10=Ann Hampton Callaway - You Turned The Tables On Me
TTITLE11=Ann Hampton Callaway - The Best Is Yet to Come
TTITLE12=Sista Monica - You're Only Good For One Thang Baby
TTITLE13=Wild Woman Blues - Blues Are Alright
TTITLE14=Niki Haris - This Can't Be Love
TTITLE15=Al Hibbler - Believe It Beloved
TTITLE16=Sydney Bechet - Blue My Naughty Sweetie Gives To Me
TTITLE17=Count Basie - Blues In Hoss' Flat
TTITLE18=Wild Women Blues - Wild Wild Women
EXTD=
EXTT0=
EXTT1=
EXTT2=
EXTT3=
EXTT4=
EXTT5=
EXTT6=
EXTT7=
EXTT8=
EXTT9=
EXTT10=
EXTT11=
EXTT12=
EXTT13=
EXTT14=
EXTT15=
EXTT16=
EXTT17=
EXTT18=
PLAYORDER=
